<?xml version="1.0" encoding="UTF-8" standalone="no"?>
<!-- Created with Inkscape (http://www.inkscape.org/) -->

<svg
   xmlns:dc="http://purl.org/dc/elements/1.1/"
   xmlns:cc="http://creativecommons.org/ns#"
   xmlns:rdf="http://www.w3.org/1999/02/22-rdf-syntax-ns#"
   xmlns:svg="http://www.w3.org/2000/svg"
   xmlns="http://www.w3.org/2000/svg"
   xmlns:sodipodi="http://sodipodi.sourceforge.net/DTD/sodipodi-0.dtd"
   xmlns:inkscape="http://www.inkscape.org/namespaces/inkscape"
   width="86.285675mm"
   height="17.197918mm"
   viewBox="0 0 86.285675 17.197918"
   version="1.1"
   id="svg865"
   inkscape:version="0.92.3 (unknown)"
   sodipodi:docname="express.svg">
  <defs
     id="defs859" />
  <sodipodi:namedview
     id="base"
     pagecolor="#000000"
     bordercolor="#666666"
     borderopacity="1.0"
     inkscape:pageopacity="0"
     inkscape:pageshadow="2"
     inkscape:zoom="2.8001429"
     inkscape:cx="196.7234"
     inkscape:cy="25.391134"
     inkscape:document-units="mm"
     inkscape:current-layer="layer1"
     showgrid="false"
     inkscape:window-width="1920"
     inkscape:window-height="1021"
     inkscape:window-x="1920"
     inkscape:window-y="27"
     inkscape:window-maximized="1"
     fit-margin-top="0"
     fit-margin-left="0"
     fit-margin-right="0"
     fit-margin-bottom="0" />
  <metadata
     id="metadata862">
    <rdf:RDF>
      <cc:Work
         rdf:about="">
        <dc:format>image/svg+xml</dc:format>
        <dc:type
           rdf:resource="http://purl.org/dc/dcmitype/StillImage" />
        <dc:title></dc:title>
      </cc:Work>
    </rdf:RDF>
  </metadata>
  <g
     inkscape:label="Layer 1"
     inkscape:groupmode="layer"
     id="layer1"
     transform="translate(-198.85384,-197.70669)">
    <g
       aria-label="express"
       style="font-style:normal;font-weight:normal;font-size:147.70166016px;line-height:1.25;font-family:sans-serif;letter-spacing:0px;word-spacing:0px;fill:#ffffff;fill-opacity:1;stroke:none;stroke-width:3.69254136"
       id="text1415"
       transform="matrix(1.0008512,0,0,1.0005142,0.15210762,0.03246288)">
      <path
         d="m -168.59884,-20.64924 q 1.0818,11.8276725 7.78895,19.6166272 6.77928,7.7168348 17.66939,7.7168348 10.02467,-0.07212 16.65971,-5.84171607 2.74056,-2.30783843 3.9666,-4.68779683 1.29815,-2.4520783 1.29815,-3.8223574 h 9.95256 q 0.0721,6.2744357 -7.5726,14.4239902 -9.30347,9.8804331 -25.81894,9.8804331 -7.06775,0 -13.70279,-3.245398 -6.56292,-3.317517 -11.10647,-8.9428735 -9.23136,-11.4670723 -9.23136,-28.1267805 0,-16.731829 9.08712,-28.054662 9.15923,-11.322832 25.81894,-11.322832 16.73183,0 25.81894,10.890113 9.08712,10.817992 9.08712,31.516418 z m 49.47428,-9.952553 q -2.52419,-22.501425 -25.60258,-22.501425 -9.66407,0 -15.86639,6.490796 -6.20231,6.490796 -7.71683,16.010629 z"
         style="font-style:normal;font-variant:normal;font-weight:normal;font-stretch:normal;font-size:147.70166016px;font-family:AnjaliOldLipi;-inkscape-font-specification:'AnjaliOldLipi, Normal';font-variant-ligatures:normal;font-variant-caps:normal;font-variant-numeric:normal;font-feature-settings:normal;text-align:start;writing-mode:lr-tb;text-anchor:start;fill:#ffffff;fill-opacity:1;stroke-width:3.69254136"
         id="path824"
         inkscape:connector-curvature="0" />
      <path
         d="m -37.484773,-57.430415 -22.501424,32.309738 25.386222,36.132096 -8.221674,5.625356 -23.222624,-33.030937 -23.006265,33.103057 -8.221674,-5.625356 25.169863,-36.204216 -22.717785,-32.381858 8.221675,-5.625356 20.554186,29.35282 20.337826,-29.2807 z"
         style="font-style:normal;font-variant:normal;font-weight:normal;font-stretch:normal;font-size:147.70166016px;font-family:AnjaliOldLipi;-inkscape-font-specification:'AnjaliOldLipi, Normal';font-variant-ligatures:normal;font-variant-caps:normal;font-variant-numeric:normal;font-feature-settings:normal;text-align:start;writing-mode:lr-tb;text-anchor:start;fill:#ffffff;fill-opacity:1;stroke-width:3.69254136"
         id="path826"
         inkscape:connector-curvature="0" />
      <path
         d="m -17.507554,-61.685492 h 9.9525535 v 9.231354 q 9.1592338,-7.428355 13.8470306,-9.014994 4.6877969,-1.586639 8.1495549,-1.658759 14.78459,0 23.511104,12.332512 8.798634,12.260392 8.798634,27.910421 0,15.6500294 -7.284115,26.612262 -8.510155,12.837351 -24.376544,12.837351 -15.79426918,0 -22.6456645,-7.5725946 V 44.258717 h -9.9525535 z m 48.320368,17.885748 q -5.985956,-9.375594 -16.659709,-9.375594 -10.6016331,0 -21.7081055,15.00095 v 30.2182599 q 4.9762766,9.2313537 15.2173097,13.1258311 3.7502378,1.442399 7.7168348,1.442399 4.038717,0 6.995635,-1.2260391 3.029038,-1.2260392 5.408997,-3.3175178 4.471437,-3.9665973 6.707155,-10.5295129 2.307838,-6.6350352 2.307838,-12.9094712 0,-13.053711 -5.985955,-22.429305 z"
         style="font-style:normal;font-variant:normal;font-weight:normal;font-stretch:normal;font-size:147.70166016px;font-family:AnjaliOldLipi;-inkscape-font-specification:'AnjaliOldLipi, Normal';font-variant-ligatures:normal;font-variant-caps:normal;font-variant-numeric:normal;font-feature-settings:normal;text-align:start;writing-mode:lr-tb;text-anchor:start;fill:#ffffff;fill-opacity:1;stroke-width:3.69254136"
         id="path828"
         inkscape:connector-curvature="0" />
      <path
         d="m 73.507831,-49.64146 q 9.519834,-13.414311 22.573545,-13.414311 h 6.707154 v 9.952553 h -6.707154 q -8.582274,0 -15.28943,8.942874 -4.976276,6.562916 -7.284115,15.36155 v 43.63257 h -9.952553 v -76.591388 h 9.952553 z"
         style="font-style:normal;font-variant:normal;font-weight:normal;font-stretch:normal;font-size:147.70166016px;font-family:AnjaliOldLipi;-inkscape-font-specification:'AnjaliOldLipi, Normal';font-variant-ligatures:normal;font-variant-caps:normal;font-variant-numeric:normal;font-feature-settings:normal;text-align:start;writing-mode:lr-tb;text-anchor:start;fill:#ffffff;fill-opacity:1;stroke-width:3.69254136"
         id="path830"
         inkscape:connector-curvature="0" />
      <path
         d="m 119.01554,-20.64924 q 1.0818,11.8276725 7.78895,19.6166272 6.77928,7.7168348 17.66939,7.7168348 10.02467,-0.07212 16.65971,-5.84171607 2.74056,-2.30783843 3.9666,-4.68779683 1.29815,-2.4520783 1.29815,-3.8223574 h 9.95256 q 0.0721,6.2744357 -7.5726,14.4239902 -9.30347,9.8804331 -25.81894,9.8804331 -7.06775,0 -13.70279,-3.245398 -6.56292,-3.317517 -11.10647,-8.9428735 -9.23136,-11.4670723 -9.23136,-28.1267805 0,-16.731829 9.08712,-28.054662 9.15923,-11.322832 25.81894,-11.322832 16.73183,0 25.81894,10.890113 9.08712,10.817992 9.08712,31.516418 z m 49.47428,-9.952553 q -2.52419,-22.501425 -25.60258,-22.501425 -9.66407,0 -15.86639,6.490796 -6.20231,6.490796 -7.71683,16.010629 z"
         style="font-style:normal;font-variant:normal;font-weight:normal;font-stretch:normal;font-size:147.70166016px;font-family:AnjaliOldLipi;-inkscape-font-specification:'AnjaliOldLipi, Normal';font-variant-ligatures:normal;font-variant-caps:normal;font-variant-numeric:normal;font-feature-settings:normal;text-align:start;writing-mode:lr-tb;text-anchor:start;fill:#ffffff;fill-opacity:1;stroke-width:3.69254136"
         id="path832"
         inkscape:connector-curvature="0" />
      <path
         d="m 240.24917,-41.924625 q 0,-4.976277 -5.55324,-8.077435 -5.48112,-3.101158 -13.55855,-3.101158 -8.00532,0 -12.33251,2.163599 -4.3272,2.163598 -6.1302,4.255077 -1.803,2.091479 -1.803,4.832037 0,4.615677 6.99564,7.788955 4.11084,1.875118 12.26039,3.750237 24.37654,5.625356 29.2807,13.558551 2.5242,4.038717 1.94724,9.2313536 1.4424,10.313153 -11.03435,18.2463474 -9.44772,5.913836 -17.16455,5.913836 -13.99127,0 -24.01595,-7.4283547 -9.95255,-7.500475 -9.95255,-17.2366684 h 9.95255 q 0,5.7695961 6.92352,10.2410331 6.99563,4.471437 14.56823,4.471437 7.57259,0 14.20763,-3.4617577 2.1636,-1.2260391 4.6878,-4.18295715 2.5242,-3.02903795 1.87512,-6.56291555 1.22603,-5.0483966 -5.55324,-8.0053146 -4.25508,-1.947239 -12.54887,-3.822357 -8.22168,-1.947239 -13.55855,-3.389638 -5.33688,-1.514519 -9.51984,-3.822358 -9.30347,-5.192636 -9.30347,-15.073069 0,-9.880434 9.23135,-15.65003 9.23136,-5.769596 21.20327,-5.769596 11.97191,0 20.40995,5.841716 8.43803,5.841716 8.43803,15.28943 z"
         style="font-style:normal;font-variant:normal;font-weight:normal;font-stretch:normal;font-size:147.70166016px;font-family:AnjaliOldLipi;-inkscape-font-specification:'AnjaliOldLipi, Normal';font-variant-ligatures:normal;font-variant-caps:normal;font-variant-numeric:normal;font-feature-settings:normal;text-align:start;writing-mode:lr-tb;text-anchor:start;fill:#ffffff;fill-opacity:1;stroke-width:3.69254136"
         id="path834"
         inkscape:connector-curvature="0" />
      <path
         d="m 314.1,-41.924625 q 0,-4.976277 -5.55324,-8.077435 -5.48112,-3.101158 -13.55855,-3.101158 -8.00532,0 -12.33251,2.163599 -4.3272,2.163598 -6.1302,4.255077 -1.803,2.091479 -1.803,4.832037 0,4.615677 6.99564,7.788955 4.11084,1.875118 12.26039,3.750237 24.37654,5.625356 29.2807,13.558551 2.5242,4.038717 1.94724,9.2313536 1.4424,10.313153 -11.03435,18.2463474 -9.44772,5.913836 -17.16455,5.913836 -13.99127,0 -24.01595,-7.4283547 -9.95255,-7.500475 -9.95255,-17.2366684 h 9.95255 q 0,5.7695961 6.92352,10.2410331 6.99563,4.471437 14.56823,4.471437 7.57259,0 14.20763,-3.4617577 2.1636,-1.2260391 4.6878,-4.18295715 2.5242,-3.02903795 1.87512,-6.56291555 1.22603,-5.0483966 -5.55324,-8.0053146 -4.25508,-1.947239 -12.54887,-3.822357 -8.22168,-1.947239 -13.55855,-3.389638 -5.33688,-1.514519 -9.51984,-3.822358 -9.30347,-5.192636 -9.30347,-15.073069 0,-9.880434 9.23135,-15.65003 9.23136,-5.769596 21.20327,-5.769596 11.97191,0 20.40995,5.841716 8.43803,5.841716 8.43803,15.28943 z"
         style="font-style:normal;font-variant:normal;font-weight:normal;font-stretch:normal;font-size:147.70166016px;font-family:AnjaliOldLipi;-inkscape-font-specification:'AnjaliOldLipi, Normal';font-variant-ligatures:normal;font-variant-caps:normal;font-variant-numeric:normal;font-feature-settings:normal;text-align:start;writing-mode:lr-tb;text-anchor:start;fill:#ffffff;fill-opacity:1;stroke-width:3.69254136"
         id="path836"
         inkscape:connector-curvature="0" />
    </g>
    <text
       xml:space="preserve"
       style="font-style:normal;font-weight:normal;font-size:25.26639175px;line-height:1.25;font-family:sans-serif;letter-spacing:0px;word-spacing:0px;fill:#ffffff;fill-opacity:1;stroke:none;stroke-width:0.63165981"
       x="197.86687"
       y="210.32755"
       id="text32"><tspan
         sodipodi:role="line"
         id="tspan30"
         x="197.86687"
         y="210.32755"
         style="font-style:normal;font-variant:normal;font-weight:100;font-stretch:normal;font-size:25.26638031px;font-family:Manjari;-inkscape-font-specification:'Manjari, Thin';font-variant-ligatures:normal;font-variant-caps:normal;font-variant-numeric:normal;font-feature-settings:normal;text-align:start;writing-mode:lr-tb;text-anchor:start;fill:#ffffff;fill-opacity:1;stroke-width:0.63165981">express</tspan></text>
  </g>
</svg>
