<?xml version="1.0" encoding="UTF-8" standalone="no"?>
<!-- Generator: Adobe Illustrator 22.0.1, SVG Export Plug-In . SVG Version: 6.00 Build 0)  -->

<svg
   xmlns:dc="http://purl.org/dc/elements/1.1/"
   xmlns:cc="http://creativecommons.org/ns#"
   xmlns:rdf="http://www.w3.org/1999/02/22-rdf-syntax-ns#"
   xmlns:svg="http://www.w3.org/2000/svg"
   xmlns="http://www.w3.org/2000/svg"
   xmlns:sodipodi="http://sodipodi.sourceforge.net/DTD/sodipodi-0.dtd"
   xmlns:inkscape="http://www.inkscape.org/namespaces/inkscape"
   version="1.1"
   id="Layer_4"
   x="0px"
   y="0px"
   viewBox="0 0 228.24658 64.999999"
   xml:space="preserve"
   sodipodi:docname="MongoDB_Gray_Logo_Knockout_RGB.svg"
   width="228.24658"
   height="65"
   inkscape:version="0.92.3 (d244b95, 2018-08-02)"><metadata
   id="metadata62"><rdf:RDF><cc:Work
       rdf:about=""><dc:format>image/svg+xml</dc:format><dc:type
         rdf:resource="http://purl.org/dc/dcmitype/StillImage" /><dc:title></dc:title></cc:Work></rdf:RDF></metadata><defs
   id="defs60" /><sodipodi:namedview
   pagecolor="#000000"
   bordercolor="#666666"
   borderopacity="1"
   objecttolerance="10"
   gridtolerance="10"
   guidetolerance="10"
   inkscape:pageopacity="0"
   inkscape:pageshadow="2"
   inkscape:window-width="1920"
   inkscape:window-height="1048"
   id="namedview58"
   showgrid="false"
   fit-margin-top="0"
   fit-margin-left="0"
   fit-margin-right="0"
   fit-margin-bottom="0"
   inkscape:zoom="0.86380368"
   inkscape:cx="59.830126"
   inkscape:cy="56.899998"
   inkscape:window-x="0"
   inkscape:window-y="0"
   inkscape:window-maximized="1"
   inkscape:current-layer="Layer_4" />
<style
   type="text/css"
   id="style2">
	.st0{fill:url(#SVGID_1_);}
	.st1{fill:url(#SVGID_2_);}
	.st2{fill:url(#SVGID_3_);}
	.st3{fill:#C0BFBF;}
	.st4{fill:#FFFFFF;}
</style>
<linearGradient
   id="SVGID_1_"
   gradientUnits="userSpaceOnUse"
   x1="-220.12109"
   y1="-781.29639"
   x2="-255.2247"
   y2="-781.53619"
   gradientTransform="matrix(-0.9771,-0.323,0.2901,-0.8773,19.368451,-699.8443)">
	<stop
   offset="0.2308"
   style="stop-color:#999875"
   id="stop4" />
	<stop
   offset="0.5632"
   style="stop-color:#9B9977"
   id="stop6" />
	<stop
   offset="0.6829"
   style="stop-color:#A09F7E"
   id="stop8" />
	<stop
   offset="0.7683"
   style="stop-color:#A9A889"
   id="stop10" />
	<stop
   offset="0.8373"
   style="stop-color:#B7B69A"
   id="stop12" />
	<stop
   offset="0.8964"
   style="stop-color:#C9C7B0"
   id="stop14" />
	<stop
   offset="0.9482"
   style="stop-color:#DEDDCB"
   id="stop16" />
	<stop
   offset="0.9944"
   style="stop-color:#F8F6EB"
   id="stop18" />
	<stop
   offset="1"
   style="stop-color:#FBF9EF"
   id="stop20" />
</linearGradient>

<linearGradient
   id="SVGID_2_"
   gradientUnits="userSpaceOnUse"
   x1="-214.7148"
   y1="-719.85931"
   x2="-265.21729"
   y2="-807.33228"
   gradientTransform="matrix(-0.9771,-0.323,0.2901,-0.8773,19.368451,-699.8443)">
	<stop
   offset="0"
   style="stop-color:#48A547"
   id="stop25" />
	<stop
   offset="1"
   style="stop-color:#3F9143"
   id="stop27" />
</linearGradient>

<linearGradient
   id="SVGID_3_"
   gradientUnits="userSpaceOnUse"
   x1="-210.0882"
   y1="-782.7403"
   x2="-245.8855"
   y2="-758.69531"
   gradientTransform="matrix(-0.9771,-0.323,0.2901,-0.8773,19.368451,-699.8443)">
	<stop
   offset="0"
   style="stop-color:#41A247"
   id="stop32" />
	<stop
   offset="0.3523"
   style="stop-color:#4BA74B"
   id="stop34" />
	<stop
   offset="0.9557"
   style="stop-color:#67B554"
   id="stop36" />
	<stop
   offset="1"
   style="stop-color:#69B655"
   id="stop38" />
</linearGradient>







<g
   id="g879"
   transform="scale(0.57067603)"><path
     style="fill:url(#SVGID_1_)"
     inkscape:connector-curvature="0"
     id="path23"
     d="m 27.458251,111.1 -3,-1 c 0,0 0.4,-15.1 -5.1,-16.1 -3.6,-4.2 0.6,-177.4 13.6,-0.6 0,0 -4.5,2.2 -5.3,6 -0.8,3.8 -0.2,11.7 -0.2,11.7 z"
     class="st0" /><path
     style="fill:url(#SVGID_2_)"
     inkscape:connector-curvature="0"
     id="path30"
     d="m 29.058251,96.5 c 0,0 25.9,-17 19.8,-52.4 -5.8,-25.7 -19.6,-34.2 -21,-37.4 -1.6,-2.3 -3.3,-6.3 -3.3,-6.3 l 1.1,71.6 c 0,0 -2.3,21.9 3.4,24.5 z"
     class="st1" /><path
     style="fill:url(#SVGID_3_)"
     inkscape:connector-curvature="0"
     id="path41"
     d="m 22.958251,97.5 c 0,0 -24.2999998,-16.6 -22.8999998,-45.8 1.5,-29.2 18.5999998,-43.6 21.8999998,-46.2 2.2,-2.3 2.2,-3.2 2.4,-5.5 1.5,3.2 1.3,48.5 1.4,53.8 0.7,20.7 -1.1,39.8 -2.8,43.7 z"
     class="st2" /><path
     style="fill:#c0bfbf"
     inkscape:connector-curvature="0"
     id="path43"
     d="m 299.95825,43.2 c 1.4,0 6.7,0.2 9.1,0.2 4.6,0 7.8,-0.2 16.3,-0.2 7.2,0 13.2,1.9 17.6,5.7 5.2,4.5 8,10.8 8,18.5 0,10.9 -5,17.2 -10,20.8 -5,3.7 -11.4,5.8 -20.7,5.8 -4.9,0 -13.3,-0.2 -20.4,-0.2 h -0.1 c -0.3,-0.6 0.6,-3.2 1.2,-3.2 1.9,-0.2 2.4,-0.3 3.3,-0.7 1.5,-0.6 1.8,-1.4 2,-4 0.2,-5 0.2,-11 0.2,-17.8 0,-4.8 0.1,-14.3 -0.1,-17.3 -0.2,-2.5 -1.3,-3.1 -3.4,-3.6 -1.1,-0.2 -2.5,-0.5 -4.6,-0.7 0,-0.7 1.2,-2.9 1.6,-3.3 z m 16.3,44.9 c 1.7,1.4 5.2,1.9 8.2,1.9 3.9,0 7.8,-0.7 11.5,-4.1 3.8,-3.5 6.5,-8.8 6.5,-17.3 0,-8.2 -3.1,-14.8 -9.5,-18.7 -3.6,-2.3 -8.3,-3.1 -13.6,-3.1 -1.6,0 -3.1,0.1 -4,0.5 -0.2,0.2 -0.7,0.8 -0.7,1.1 -0.2,1.5 -0.2,12.5 -0.2,19.1 0,6.7 0,16.1 0.2,17.2 0.1,0.9 0.6,2.6 1.6,3.4 z"
     class="st3" /><path
     style="fill:#c0bfbf"
     inkscape:connector-curvature="0"
     id="path45"
     d="m 357.95825,43.2 c 0.7,0 2.9,0.2 8.5,0.2 5.2,0 9.5,-0.2 14.6,-0.2 6.3,0 15,2.3 15,11.6 0,4.6 -3.3,8.3 -7.5,10.1 -0.2,0.1 -0.2,0.2 0,0.3 6,1.5 11.4,5.2 11.4,12.4 0,6.9 -4.3,11.3 -10.6,14 -3.8,1.7 -8.6,2.3 -13.4,2.3 -3.7,0 -13.5,-0.4 -19,-0.3 -0.6,-0.2 0.5,-2.8 1,-3.2 1.3,-0.1 2.3,-0.2 3.7,-0.6 2,-0.5 2.2,-1.1 2.4,-4 0.2,-2.5 0.2,-11.5 0.2,-17.8 0,-8.7 0.1,-14.6 0,-17.5 -0.1,-2.3 -0.9,-3 -2.5,-3.4 -1.2,-0.2 -3.3,-0.5 -4.9,-0.7 -0.6,-0.5 0.7,-2.9 1.1,-3.2 z m 33.3,36.2 c 0,-7.1 -5.2,-11.1 -14.8,-11.1 -0.4,0 -3.4,-0.1 -4.2,0.1 -0.2,0.1 -0.5,0.2 -0.5,0.4 0,5.1 -0.1,13.2 0.2,16.5 0.2,1.4 1.1,3.3 2.4,3.9 1.3,0.7 4.3,0.9 6.3,0.9 5.6,-0.1 10.6,-3.3 10.6,-10.7 z m -18.6,-32.3 c -0.3,0.1 -0.7,0.9 -0.7,1.3 -0.1,2.9 -0.2,10.5 -0.2,15.7 0,0.2 0.2,0.4 0.4,0.4 1.1,0.1 3.7,0.2 5.9,0.2 3.1,0 4.9,-0.4 5.9,-0.9 2.6,-1.3 3.8,-4.1 3.8,-7.2 0,-7 -4.9,-9.7 -12.2,-9.7 -0.4,0.1 -1.8,0.1 -2.9,0.2 z"
     class="st3" /><path
     style="fill:#ffffff"
     inkscape:connector-curvature="0"
     id="path47"
     d="m 65.458251,93.8 c -0.1,-0.2 -0.3,-0.8 -0.3,-1.6 0,-0.6 0.1,-1 0.2,-1.1 1.5,-0.2 2.3,-0.4 3.1,-0.6 1.4,-0.4 2,-1.1 2.1,-3 0.2,-4.4 0.3,-12.5 0.2,-18.3 V 69 c 0,-0.6 0,-1.5 -0.8,-2.1 -1.1,-0.7 -2.5,-1.4 -4.3,-1.9 -0.7,-0.2 -1.1,-0.6 -1,-1 0,-0.4 0.5,-0.9 1.3,-1.1 2.4,-0.2 8.6,-1.7 11,-2.8 0.1,0.2 0.4,0.6 0.3,1.2 0,0.3 0,0.5 -0.1,0.8 -0.1,0.8 -0.1,1.7 -0.1,2.6 0,0.3 0.3,0.5 0.6,0.5 0.2,0 0.3,-0.1 0.4,-0.2 4.6,-3.6 8.8,-4.9 10.9,-4.9 3.5,0 6.2,1.7 8.4,5.1 0.1,0.2 0.3,0.3 0.5,0.3 0.2,0 0.3,-0.1 0.4,-0.2 4.299999,-3.2 8.499999,-5.2 11.299999,-5.2 6.7,0 10.7,5 10.7,13.4 0,2.4 0,5.5 0,8.3 0,2.5 0,4.8 0,6.5 0,0.4 0.5,1.5 1.3,1.7 1,0.5 2.4,0.7 4.2,1 h 0.1 c 0.1,0.5 -0.1,2.3 -0.4,2.7 -0.4,0 -1.1,0 -1.8,-0.1 -1.4,-0.1 -3.3,-0.2 -5.5,-0.2 -4.4,0 -6.8,0.1 -9,0.2 -0.2,-0.6 -0.2,-2.3 0,-2.7 1.3,-0.2 1.9,-0.4 2.7,-0.6 1.4,-0.5 1.8,-1.1 1.9,-3 0,-1.3 0.3,-13.1 -0.2,-15.9 -0.4,-2.9 -2.6,-6.3 -7.4,-6.3 -1.8,0 -4.6,0.7 -7.399999,2.8 -0.2,0.2 -0.3,0.5 -0.3,0.7 v 0.1 c 0.3,1.5 0.3,3.3 0.3,5.9 0,1.5 0,3.1 0,4.7 0,3.2 0,6.3 0,8.6 0,1.6 1,2 1.699999,2.3 0.4,0.1 0.7,0.2 1.1,0.3 0.6,0.2 1.3,0.3 2.3,0.5 0.1,0.3 0.1,1.2 0,2 -0.1,0.4 -0.2,0.6 -0.3,0.7 -2.5,-0.1 -4.999999,-0.2 -8.699999,-0.2 -1.1,0 -2.9,0 -4.5,0.1 -1.3,0 -2.5,0.1 -3.2,0.1 -0.1,-0.2 -0.2,-0.7 -0.2,-1.4 0,-0.7 0.1,-1.2 0.3,-1.3 0.3,-0.1 0.7,-0.1 1,-0.2 0.9,-0.2 1.6,-0.3 2.3,-0.5 1.2,-0.4 1.7,-1 1.8,-2.6 0.2,-3.6 0.4,-13.9 -0.1,-16.5 -0.9,-4.2 -3.2,-6.3 -7,-6.3 -2.2,0 -5.1,1.1 -7.4,2.8 -0.4,0.3 -0.7,1 -0.7,1.7 0,1.2 0,2.7 0,4.3 0,5.2 0,11.7 0.1,14.5 0.1,0.9 0.4,1.9 2,2.3 0.4,0.1 1,0.2 1.7,0.3 0.4,0.1 0.9,0.1 1.3,0.2 0.2,0.4 0.1,2.2 -0.2,2.7 -0.7,0 -1.6,0 -2.6,-0.1 -1.5,-0.1 -3.4,-0.2 -5.6,-0.2 -2.6,0 -4.3,0.1 -5.8,0.2 -0.9,0.2 -1.8,0.2 -2.6,0.2 z"
     class="st4" /><path
     style="fill:#ffffff"
     inkscape:connector-curvature="0"
     id="path49"
     d="m 147.85825,94.6 c -12.3,0 -16.7,-9 -16.7,-17.4 0,-5.9 2.4,-10.5 7.2,-13.7 3.4,-2.1 7.4,-3.3 11.1,-3.3 9.4,0 15.9,6.7 15.9,16.4 0,6.6 -2.6,11.7 -7.6,15 -2.4,1.4 -6.5,3 -9.9,3 z m -1.3,-31 c -1.5,0 -2.9,0.4 -3.9,1.1 -2.8,1.7 -4.3,5.2 -4.3,10.2 0,9.5 4.7,16.1 11.5,16.1 2,0 3.6,-0.6 5,-1.8 2.1,-1.7 3.2,-5.2 3.2,-10 0,-9.3 -4.6,-15.6 -11.5,-15.6 z"
     class="st4" /><path
     style="fill:#ffffff"
     inkscape:connector-curvature="0"
     id="path51"
     d="m 275.05825,94.6 c -12.3,0 -16.7,-9 -16.7,-17.4 0,-5.9 2.4,-10.5 7.2,-13.7 3.4,-2.1 7.4,-3.3 11.1,-3.3 9.4,0 15.9,6.7 15.9,16.4 0,6.6 -2.6,11.7 -7.6,15 -2.4,1.4 -6.5,3 -9.9,3 z m -1.3,-31 c -1.5,0 -2.9,0.4 -3.9,1.1 -2.8,1.7 -4.3,5.2 -4.3,10.2 0,9.5 4.7,16.1 11.5,16.1 2,0 3.6,-0.6 5,-1.8 2.1,-1.7 3.2,-5.2 3.2,-10 0,-9.3 -4.6,-15.6 -11.5,-15.6 z"
     class="st4" /><path
     style="fill:#ffffff"
     inkscape:connector-curvature="0"
     id="path53"
     d="m 232.65825,113.9 c -4.4,0 -7.6,-0.9 -10.3,-3 -2.6,-2 -3.8,-5.1 -3.8,-7.1 0,-0.6 0.1,-2.2 1.4,-3.6 0.8,-0.9 2.5,-2.5 6.7,-5.3 0.1,0 0.2,-0.2 0.2,-0.3 0,-0.2 -0.1,-0.3 -0.3,-0.3 -3.4,-1.3 -4.4,-3.4 -4.7,-4.6 0,0 0,-0.1 0,-0.2 -0.1,-0.5 -0.2,-0.9 0.4,-1.3 0.5,-0.3 1.2,-0.8 2,-1.3 1.2,-0.7 2.5,-1.5 3.3,-2.1 0.1,-0.1 0.2,-0.3 0.1,-0.5 0,-0.2 -0.1,-0.3 -0.3,-0.4 -5,-1.7 -7.5,-5.4 -7.5,-11.1 0,-3.7 1.7,-7 4.6,-9.1 2,-1.6 7.1,-3.5 10.4,-3.5 h 0.2 c 3.4,0.1 5.3,0.8 7.9,1.8 1.4,0.5 2.8,0.7 4.7,0.7 2.8,0 4,-0.9 5.1,-1.9 0.1,0.1 0.2,0.5 0.3,1.4 0.1,0.9 -0.2,2.3 -0.9,3.3 -0.6,0.8 -1.9,1.4 -3.1,1.4 -0.1,0 -0.2,0 -0.4,0 -1.3,-0.1 -1.9,-0.3 -1.9,-0.3 l -0.3,0.1 c -0.1,0.1 0,0.3 0,0.5 0,0 0,0.1 0,0.1 0.2,0.7 0.5,2.6 0.5,3.1 0,5.9 -2.3,8.5 -4.9,10.4 -2.4,1.8 -5.2,2.9 -8.4,3.3 v 0 c -0.1,0 -0.4,0 -1,0.1 -0.4,0 -0.9,0.1 -1,0.1 h -0.1 c -0.6,0.2 -2,0.8 -2,2.1 0,1.1 0.7,2.4 3.8,2.6 0.6,0 1.3,0.1 2,0.1 4.1,0.3 9.2,0.6 11.6,1.5 3.3,1.2 5.4,4.2 5.4,7.7 0,5.3 -3.8,10.3 -10.2,13.4 -3,1.5 -6.1,2.2 -9.5,2.2 z m -0.5,-18.7 c -1.4,0 -2.5,0.4 -3.1,0.8 -3,1.9 -4.4,3.8 -4.4,6 0,2.1 0.8,3.7 2.5,5.2 2.1,1.8 4.9,2.6 8.7,2.6 7.3,0 10.6,-3.9 10.6,-7.9 0,-2.7 -1.4,-4.5 -4.2,-5.6 -2.1,-0.7 -5.7,-1.1 -10.1,-1.1 z m 0.5,-31.9 c -3.8,0 -6.2,3 -6.2,7.6 0,4.7 2.1,10.1 8,10.1 1,0 2.9,-0.5 3.8,-1.5 1.4,-1.3 2.3,-3.9 2.3,-6.6 -0.1,-6 -3,-9.6 -7.9,-9.6 z"
     class="st4" /><path
     style="fill:#ffffff"
     inkscape:connector-curvature="0"
     id="path55"
     d="m 212.65825,90.9 c -1.8,-0.2 -3.1,-0.5 -4.7,-1.2 -0.2,-0.2 -0.6,-0.9 -0.6,-1.1 -0.2,-2.5 -0.2,-9.8 -0.2,-14.5 0,-3.9 -0.7,-7.3 -2.3,-9.7 -2,-2.7 -4.7,-4.4 -8.3,-4.4 -3.2,0 -7.4,2.2 -11,5.2 -0.1,0.1 -0.6,0.6 -0.6,-0.2 0,-0.8 0.1,-2.4 0.2,-3.4 0.1,-1 -0.5,-1.5 -0.5,-1.5 -2.3,1.1 -8.7,2.7 -11.1,2.9 -1.7,0.3 -2.1,2 -0.3,2.6 v 0 c 0,0 0,0 0,0 1.9,0.6 3.2,1.2 4.2,1.8 0.7,0.6 0.6,1.4 0.6,2 0.1,5.4 0.1,13.7 -0.2,18.2 -0.1,1.8 -0.6,2.4 -1.9,2.7 h 0.1 c -1,0.2 -1.8,0.4 -3,0.6 -0.4,0.4 -0.4,2.7 0,3.2 0.8,0 5,-0.2 8.4,-0.2 4.7,0 7.2,0.2 8.4,0.2 0.5,-0.6 0.7,-2.7 0.3,-3.2 -1.4,-0.1 -2.4,-0.2 -3.4,-0.5 -1.3,-0.3 -1.6,-1 -1.7,-2.4 -0.2,-3.8 -0.2,-11.9 -0.2,-17.4 0,-1.5 0.4,-2.3 0.9,-2.7 1.6,-1.5 4.3,-2.4 6.7,-2.4 2.3,0 3.8,0.7 5,1.7 1.6,1.3 2.1,3.1 2.3,4.5 0.3,3.1 0.2,9.2 0.2,14.5 0,2.9 -0.2,3.6 -1.3,4 -0.5,0.2 -1.8,0.5 -3.4,0.6 -0.5,0.5 -0.3,2.7 0,3.2 2.1,0 4.6,-0.2 8.2,-0.2 4.5,0 7.4,0.2 8.5,0.2 0.9,-0.5 1.1,-2.6 0.7,-3.1 z"
     class="st4" /></g>
</svg>