<?xml version="1.0" encoding="UTF-8" standalone="no"?>
<!-- Created with Inkscape (http://www.inkscape.org/) -->

<svg
   xmlns:dc="http://purl.org/dc/elements/1.1/"
   xmlns:cc="http://creativecommons.org/ns#"
   xmlns:rdf="http://www.w3.org/1999/02/22-rdf-syntax-ns#"
   xmlns:svg="http://www.w3.org/2000/svg"
   xmlns="http://www.w3.org/2000/svg"
   xmlns:sodipodi="http://sodipodi.sourceforge.net/DTD/sodipodi-0.dtd"
   xmlns:inkscape="http://www.inkscape.org/namespaces/inkscape"
   width="219.70724"
   height="44.713516"
   viewBox="0 0 219.70725 44.713518"
   id="svg2"
   version="1.1"
   inkscape:version="0.92.3 (d244b95, 2018-08-02)"
   sodipodi:docname="tvc-wordmark-2.svg"
   inkscape:export-filename="/home/klequis/Dropbox/trivalleycoders/branding.tvc/tvc-logo.png"
   inkscape:export-xdpi="90"
   inkscape:export-ydpi="90">
  <defs
     id="defs4" />
  <sodipodi:namedview
     id="base"
     pagecolor="#26272c"
     bordercolor="#666666"
     borderopacity="1.0"
     inkscape:pageopacity="1"
     inkscape:pageshadow="2"
     inkscape:zoom="1.4142136"
     inkscape:cx="-249.85524"
     inkscape:cy="89.048192"
     inkscape:document-units="px"
     inkscape:current-layer="layer1"
     showgrid="false"
     units="px"
     showguides="true"
     inkscape:guide-bbox="true"
     guidecolor="#ff0000"
     guideopacity="1"
     inkscape:window-width="1920"
     inkscape:window-height="1048"
     inkscape:window-x="0"
     inkscape:window-y="0"
     inkscape:window-maximized="1"
     showborder="true"
     fit-margin-top="0"
     fit-margin-left="0"
     fit-margin-right="0"
     fit-margin-bottom="0">
    <inkscape:grid
       type="xygrid"
       id="grid4172"
       spacingx="5.0000001"
       spacingy="5.0000002"
       color="#ff0000"
       opacity="0.89411765"
       empcolor="#fd0000"
       empopacity="1"
       originx="-415.29424"
       originy="-506.84774" />
    <sodipodi:guide
       position="-415.29424,-206.13341"
       orientation="1,0"
       id="guide4198"
       inkscape:locked="false" />
    <sodipodi:guide
       position="492.89408,344.09999"
       orientation="0,1"
       id="guide45"
       inkscape:locked="false" />
    <sodipodi:guide
       position="522.89408,-186.90002"
       orientation="0,1"
       id="guide47"
       inkscape:locked="false" />
    <sodipodi:guide
       position="-110.30866,208.93965"
       orientation="0,1"
       id="guide298"
       inkscape:locked="false" />
    <sodipodi:guide
       position="-30.759147,-41.729711"
       orientation="0,1"
       id="guide300"
       inkscape:locked="false" />
  </sodipodi:namedview>
  <metadata
     id="metadata7">
    <rdf:RDF>
      <cc:Work
         rdf:about="">
        <dc:format>image/svg+xml</dc:format>
        <dc:type
           rdf:resource="http://purl.org/dc/dcmitype/StillImage" />
        <dc:title />
      </cc:Work>
    </rdf:RDF>
  </metadata>
  <g
     inkscape:label="Layer 1"
     inkscape:groupmode="layer"
     id="layer1"
     transform="translate(-415.29423,-500.80075)">
    <g
       aria-label="TriValley"
       style="font-style:normal;font-variant:normal;font-weight:normal;font-stretch:normal;font-size:24.79919243px;line-height:0%;font-family:sans-serif;-inkscape-font-specification:'sans-serif, Normal';font-variant-ligatures:normal;font-variant-caps:normal;font-variant-numeric:normal;font-feature-settings:normal;text-align:start;letter-spacing:0px;word-spacing:0px;writing-mode:lr-tb;text-anchor:start;fill:#000000;fill-opacity:1;stroke:none;stroke-width:0.83338201px;stroke-linecap:butt;stroke-linejoin:miter;stroke-opacity:1"
       id="text4140">
      <path
         d="m 433.19712,505.54039 h -7.14201 v 11.45699 h -3.42222 v -11.45699 h -6.52205 v -2.80225 h 17.08628 z"
         style="font-style:normal;font-variant:normal;font-weight:normal;font-stretch:normal;font-size:24.79866791px;line-height:125%;font-family:Wallpoet;-inkscape-font-specification:'Wallpoet, Normal';font-variant-ligatures:normal;font-variant-caps:normal;font-variant-numeric:normal;font-feature-settings:normal;text-align:start;writing-mode:lr-tb;text-anchor:start;fill:#ffffff;fill-opacity:1;stroke-width:0.83338201px"
         id="path65" />
      <path
         d="m 434.26618,506.16036 h 3.09983 v 1.06634 l 3.7198,-1.06634 v 2.30627 h -3.7198 v 8.53075 h -3.09983 z m 11.1594,1.36392 -3.22383,-1.36392 v 3.37262 h 3.22383 z"
         style="font-style:normal;font-variant:normal;font-weight:normal;font-stretch:normal;font-size:24.79866791px;line-height:125%;font-family:Wallpoet;-inkscape-font-specification:'Wallpoet, Normal';font-variant-ligatures:normal;font-variant-caps:normal;font-variant-numeric:normal;font-feature-settings:normal;text-align:start;writing-mode:lr-tb;text-anchor:start;fill:#ffffff;fill-opacity:1;stroke-width:0.83338201px"
         id="path67" />
      <path
         d="m 450.79566,506.08596 v 10.93621 h -3.12464 v -10.93621 z m -0.0496,-1.01674 h -3.07504 v -2.30628 h 3.07504 z"
         style="font-style:normal;font-variant:normal;font-weight:normal;font-stretch:normal;font-size:24.79866791px;line-height:125%;font-family:Wallpoet;-inkscape-font-specification:'Wallpoet, Normal';font-variant-ligatures:normal;font-variant-caps:normal;font-variant-numeric:normal;font-feature-settings:normal;text-align:start;writing-mode:lr-tb;text-anchor:start;fill:#ffffff;fill-opacity:1;stroke-width:0.83338201px"
         id="path69" />
      <path
         d="m 455.83366,502.73814 5.10853,8.55554 v 5.7037 l -7.93558,-13.34169 2.82705,-0.91755 z m 11.45698,0 -5.13332,8.55554 v 5.7037 l 7.93557,-13.34169 -2.80225,-0.91755 z"
         style="font-style:normal;font-variant:normal;font-weight:normal;font-stretch:normal;font-size:24.79866791px;line-height:125%;font-family:Wallpoet;-inkscape-font-specification:'Wallpoet, Normal';font-variant-ligatures:normal;font-variant-caps:normal;font-variant-numeric:normal;font-feature-settings:normal;text-align:start;writing-mode:lr-tb;text-anchor:start;fill:#ffffff;fill-opacity:1;stroke-width:0.83338201px"
         id="path71" />
      <path
         d="m 470.58073,512.16164 2.82705,-1.71111 h 4.06698 v 1.90949 h -3.7446 v 2.0335 h 3.7446 v 2.62865 h -4.06698 l -2.82705,-1.7111 z m 0,-2.62866 v -1.71111 l 2.82705,-1.73591 h 4.06698 v 2.33108 h -3.7446 v 1.11594 z m 14.8792,-1.71111 -2.82705,-1.73591 h -4.06698 v 2.33108 h 3.7446 v 2.03349 h -3.7446 v 1.90949 h 3.7446 v 2.0335 h -3.6454 v 2.62865 h 6.79483 z"
         style="font-style:normal;font-variant:normal;font-weight:normal;font-stretch:normal;font-size:24.79866791px;line-height:125%;font-family:Wallpoet;-inkscape-font-specification:'Wallpoet, Normal';font-variant-ligatures:normal;font-variant-caps:normal;font-variant-numeric:normal;font-feature-settings:normal;text-align:start;writing-mode:lr-tb;text-anchor:start;fill:#ffffff;fill-opacity:1;stroke-width:0.83338201px"
         id="path73" />
      <path
         d="m 490.16005,502.73814 h 3.17423 v 14.28403 h -3.17423 z"
         style="font-style:normal;font-variant:normal;font-weight:normal;font-stretch:normal;font-size:24.79866791px;line-height:125%;font-family:Wallpoet;-inkscape-font-specification:'Wallpoet, Normal';font-variant-ligatures:normal;font-variant-caps:normal;font-variant-numeric:normal;font-feature-settings:normal;text-align:start;writing-mode:lr-tb;text-anchor:start;fill:#ffffff;fill-opacity:1;stroke-width:0.83338201px"
         id="path75" />
      <path
         d="m 498.29711,502.73814 h 3.17423 v 14.28403 h -3.17423 z"
         style="font-style:normal;font-variant:normal;font-weight:normal;font-stretch:normal;font-size:24.79866791px;line-height:125%;font-family:Wallpoet;-inkscape-font-specification:'Wallpoet, Normal';font-variant-ligatures:normal;font-variant-caps:normal;font-variant-numeric:normal;font-feature-settings:normal;text-align:start;writing-mode:lr-tb;text-anchor:start;fill:#ffffff;fill-opacity:1;stroke-width:0.83338201px"
         id="path77" />
      <path
         d="m 520.9166,510.62412 -2.92625,1.71111 h -3.96778 v -1.9095 h 3.7446 v -2.03349 h -3.7446 v -2.33108 h 3.96778 l 2.92625,1.73591 z m 0,2.92624 v 1.73591 l -2.92625,1.71111 h -3.96778 v -2.62866 h 3.6454 v -0.81836 z m -14.9784,1.73591 2.92624,1.71111 h 3.94299 v -2.62866 h -3.7446 v -2.03349 h 3.7446 v -1.9095 h -3.7446 v -2.03349 h 3.7446 v -2.33108 h -3.94299 l -2.92624,1.73591 z"
         style="font-style:normal;font-variant:normal;font-weight:normal;font-stretch:normal;font-size:24.79866791px;line-height:125%;font-family:Wallpoet;-inkscape-font-specification:'Wallpoet, Normal';font-variant-ligatures:normal;font-variant-caps:normal;font-variant-numeric:normal;font-feature-settings:normal;text-align:start;writing-mode:lr-tb;text-anchor:start;fill:#ffffff;fill-opacity:1;stroke-width:0.83338201px"
         id="path79" />
      <path
         d="m 523.35636,506.13556 h 3.12463 v 7.4396 h 3.7198 v 1.98389 h -3.99258 l -2.85185,-1.71111 z m 3.12463,11.97776 v 1.14073 h 3.7198 v 2.57907 h -3.99258 l -2.85185,-1.71111 v -2.00869 z m 11.70497,-11.97776 v 13.98645 l -3.12463,1.71111 h -3.7198 v -2.57907 h 3.7198 v -3.695 h -3.7198 v -1.98389 h 3.7198 v -7.4396 z"
         style="font-style:normal;font-variant:normal;font-weight:normal;font-stretch:normal;font-size:24.79866791px;line-height:125%;font-family:Wallpoet;-inkscape-font-specification:'Wallpoet, Normal';font-variant-ligatures:normal;font-variant-caps:normal;font-variant-numeric:normal;font-feature-settings:normal;text-align:start;writing-mode:lr-tb;text-anchor:start;fill:#ffffff;fill-opacity:1;stroke-width:0.83338201px"
         id="path81" />
    </g>
    <g
       aria-label="Coders"
       transform="scale(1.1281522,0.88640521)"
       style="font-style:normal;font-variant:normal;font-weight:normal;font-stretch:normal;font-size:21.54179955px;line-height:0%;font-family:sans-serif;-inkscape-font-specification:'sans-serif, Normal';font-variant-ligatures:normal;font-variant-caps:normal;font-variant-numeric:normal;font-feature-settings:normal;text-align:start;letter-spacing:0px;word-spacing:0px;writing-mode:lr-tb;text-anchor:start;fill:#000000;fill-opacity:1;stroke:none;stroke-width:0.72391671px;stroke-linecap:butt;stroke-linejoin:miter;stroke-opacity:1"
       id="text4144">
      <path
         d="m 493.20243,583.59398 q -3.44908,0 -5.26577,-2.21162 -1.81669,-2.21163 -1.81669,-6.2926 0,-2.02732 0.5529,-3.60706 0.55291,-1.57973 1.52708,-2.65921 1.0005,-1.10581 2.34327,-1.65872 1.3691,-0.57924 2.97516,-0.57924 0.86885,0 1.5534,0.15798 0.71088,0.13164 1.23746,0.31594 0.52658,0.18431 0.86885,0.39494 0.36861,0.21063 0.55291,0.31594 l -0.84252,2.58023 q -0.60557,-0.39493 -1.47442,-0.65822 -0.84252,-0.28962 -1.94834,-0.28962 -0.76353,0 -1.50074,0.28962 -0.71088,0.26329 -1.29012,0.92151 -0.5529,0.63189 -0.92151,1.71138 -0.34227,1.07948 -0.34227,2.68554 0,2.79086 0.94784,4.29161 0.97416,1.47442 3.15946,1.47442 1.26379,0 2.07998,-0.28962 0.84252,-0.28962 1.34277,-0.57924 l 0.8162,2.5539 q -0.68455,0.42126 -1.86935,0.78987 -1.15847,0.34227 -2.68555,0.34227 z"
         style="font-style:normal;font-variant:normal;font-weight:bold;font-stretch:normal;font-size:26.32887077px;line-height:125%;font-family:'Ubuntu Mono';-inkscape-font-specification:'Ubuntu Mono, Bold';font-variant-ligatures:normal;font-variant-caps:normal;font-variant-numeric:normal;font-feature-settings:normal;text-align:start;writing-mode:lr-tb;text-anchor:start;fill:#34e97c;fill-opacity:1;stroke-width:0.72391671px"
         id="path52" />
      <path
         d="m 511.00075,577.0381 q 0,1.47441 -0.42126,2.68554 -0.42126,1.1848 -1.1848,2.05365 -0.76354,0.86885 -1.84302,1.34277 -1.05316,0.47392 -2.3696,0.47392 -1.31644,0 -2.39593,-0.47392 -1.05315,-0.47392 -1.84302,-1.34277 -0.76354,-0.86885 -1.1848,-2.05365 -0.42126,-1.21113 -0.42126,-2.68554 0,-1.44809 0.42126,-2.63289 0.44759,-1.21113 1.21113,-2.05365 0.78987,-0.86886 1.86935,-1.31645 1.07948,-0.47392 2.34327,-0.47392 1.29011,0 2.34327,0.47392 1.07948,0.44759 1.84302,1.31645 0.78987,0.84252 1.21113,2.05365 0.42126,1.1848 0.42126,2.63289 z m -8.37258,0.0263 q 0,1.65872 0.57923,2.68555 0.60557,1.02683 1.92201,1.02683 1.26379,0 1.89568,-1.02683 0.65822,-1.02683 0.65822,-2.68555 0,-1.65871 -0.60556,-2.65921 -0.57924,-1.02683 -1.89568,-1.02683 -1.26379,0 -1.92201,1.02683 -0.63189,1.0005 -0.63189,2.65921 z"
         style="font-style:normal;font-variant:normal;font-weight:bold;font-stretch:normal;font-size:26.32887077px;line-height:125%;font-family:'Ubuntu Mono';-inkscape-font-specification:'Ubuntu Mono, Bold';font-variant-ligatures:normal;font-variant-caps:normal;font-variant-numeric:normal;font-feature-settings:normal;text-align:start;writing-mode:lr-tb;text-anchor:start;fill:#34e97c;fill-opacity:1;stroke-width:0.72391671px"
         id="path54" />
      <path
         d="m 515.76628,576.98544 q 0,1.65872 0.60556,2.71187 0.63189,1.05316 2.00099,1.05316 0.39494,0 0.73721,-0.0263 0.34228,-0.0263 0.71088,-0.079 v -6.74019 q -0.3686,-0.21063 -0.84252,-0.34228 -0.47392,-0.15797 -1.0005,-0.15797 -1.15847,0 -1.68505,0.92151 -0.52657,0.92151 -0.52657,2.65922 z m 7.29309,5.89766 q -0.89518,0.28962 -2.18529,0.47392 -1.29012,0.18431 -2.52757,0.18431 -2.89618,0 -4.39693,-1.71138 -1.47441,-1.71138 -1.47441,-4.68654 0,-3.02782 1.23745,-4.76552 1.26379,-1.76404 3.71237,-1.76404 0.65823,0 1.29012,0.15797 0.63189,0.13165 1.10581,0.39494 v -5.63438 l 3.23845,-0.55291 z"
         style="font-style:normal;font-variant:normal;font-weight:bold;font-stretch:normal;font-size:26.32887077px;line-height:125%;font-family:'Ubuntu Mono';-inkscape-font-specification:'Ubuntu Mono, Bold';font-variant-ligatures:normal;font-variant-caps:normal;font-variant-numeric:normal;font-feature-settings:normal;text-align:start;writing-mode:lr-tb;text-anchor:start;fill:#34e97c;fill-opacity:1;stroke-width:0.72391671px"
         id="path56" />
      <path
         d="m 525.71859,577.16974 q 0,-1.63239 0.50025,-2.86985 0.50025,-1.23745 1.31644,-2.05365 0.8162,-0.84252 1.86935,-1.26378 1.05316,-0.42127 2.15897,-0.42127 2.7382,0 4.15996,1.63239 1.42176,1.60606 1.42176,4.71287 0,0.31595 -0.0263,0.65822 0,0.34228 -0.0263,0.55291 h -8.03031 q 0,1.21113 1.0005,1.92201 1.0005,0.68455 2.58023,0.68455 0.97417,0 1.84302,-0.21063 0.89518,-0.21063 1.50075,-0.42127 l 0.44759,2.76454 q -0.84253,0.28961 -1.79036,0.47392 -0.94784,0.21063 -2.13264,0.21063 -1.57974,0 -2.84352,-0.39494 -1.23746,-0.42126 -2.13264,-1.21112 -0.86885,-0.8162 -1.34277,-2.001 -0.47392,-1.1848 -0.47392,-2.76453 z m 8.29359,-1.29011 q 0,-0.50025 -0.13164,-0.94784 -0.13165,-0.47392 -0.42126,-0.84253 -0.28962,-0.3686 -0.73721,-0.57923 -0.44759,-0.23696 -1.10581,-0.23696 -0.6319,0 -1.10582,0.21063 -0.44759,0.21063 -0.76353,0.57923 -0.28962,0.36861 -0.47392,0.84253 -0.15798,0.47392 -0.21064,0.97417 z"
         style="font-style:normal;font-variant:normal;font-weight:bold;font-stretch:normal;font-size:26.32887077px;line-height:125%;font-family:'Ubuntu Mono';-inkscape-font-specification:'Ubuntu Mono, Bold';font-variant-ligatures:normal;font-variant-caps:normal;font-variant-numeric:normal;font-feature-settings:normal;text-align:start;writing-mode:lr-tb;text-anchor:start;fill:#34e97c;fill-opacity:1;stroke-width:0.72391671px"
         id="path58" />
      <path
         d="m 549.57255,574.16825 q -0.31595,-0.079 -0.76354,-0.15797 -0.42126,-0.079 -0.86885,-0.13165 -0.44759,-0.079 -0.86886,-0.10531 -0.42126,-0.0263 -0.71088,-0.0263 -0.68455,0 -1.34277,0.079 -0.65822,0.0527 -1.34277,0.23696 v 9.18878 h -3.26478 v -11.55838 q 1.29011,-0.47391 2.63289,-0.76353 1.3691,-0.28962 3.18579,-0.28962 0.26329,0 0.73721,0.0263 0.50025,0.0263 1.05315,0.10531 0.55291,0.0527 1.10582,0.15798 0.57923,0.079 1.02682,0.23696 z"
         style="font-style:normal;font-variant:normal;font-weight:bold;font-stretch:normal;font-size:26.32887077px;line-height:125%;font-family:'Ubuntu Mono';-inkscape-font-specification:'Ubuntu Mono, Bold';font-variant-ligatures:normal;font-variant-caps:normal;font-variant-numeric:normal;font-feature-settings:normal;text-align:start;writing-mode:lr-tb;text-anchor:start;fill:#34e97c;fill-opacity:1;stroke-width:0.72391671px"
         id="path60" />
      <path
         d="m 557.23424,580.80312 q 1.1848,0 1.8167,-0.15797 0.63189,-0.1843 0.63189,-0.71088 0,-0.34227 -0.21063,-0.57923 -0.1843,-0.23696 -0.55291,-0.39494 -0.34227,-0.1843 -0.81619,-0.34227 -0.44759,-0.15798 -0.94784,-0.31595 -0.71088,-0.21063 -1.44809,-0.47392 -0.73721,-0.28962 -1.34277,-0.71088 -0.60557,-0.42126 -1.0005,-1.05315 -0.39493,-0.65822 -0.39493,-1.63239 0,-0.78987 0.28962,-1.47442 0.31594,-0.71088 0.94783,-1.23746 0.65823,-0.5529 1.65872,-0.84252 1.0005,-0.31595 2.39593,-0.31595 1.21113,0 2.23795,0.18431 1.05316,0.1843 1.8167,0.52657 l -0.50025,2.73821 q -0.44759,-0.13165 -1.39543,-0.42127 -0.94784,-0.31594 -2.13264,-0.31594 -1.23746,0 -1.68505,0.31594 -0.42126,0.28962 -0.42126,0.6319 0,0.28961 0.1843,0.52657 0.21063,0.21063 0.52658,0.39494 0.34227,0.1843 0.76354,0.3686 0.44759,0.15797 0.94784,0.31595 0.71088,0.23696 1.47441,0.52657 0.76354,0.28962 1.3691,0.73721 0.6319,0.42127 1.02683,1.10582 0.39493,0.65822 0.39493,1.63239 0,0.76353 -0.28961,1.44808 -0.28962,0.68455 -0.97417,1.1848 -0.65822,0.50025 -1.73771,0.78987 -1.07948,0.28962 -2.65921,0.28962 -1.60607,0 -2.73821,-0.36861 -1.13214,-0.3686 -1.81669,-0.65822 l 0.50025,-2.71187 q 0.92151,0.3686 1.94834,0.68455 1.05315,0.31594 2.13263,0.31594 z"
         style="font-style:normal;font-variant:normal;font-weight:bold;font-stretch:normal;font-size:26.32887077px;line-height:125%;font-family:'Ubuntu Mono';-inkscape-font-specification:'Ubuntu Mono, Bold';font-variant-ligatures:normal;font-variant-caps:normal;font-variant-numeric:normal;font-feature-settings:normal;text-align:start;writing-mode:lr-tb;text-anchor:start;fill:#34e97c;fill-opacity:1;stroke-width:0.72391671px"
         id="path62" />
    </g>
    <g
       aria-label="Don't code alone!™"
       style="font-style:normal;font-weight:normal;font-size:9.6782999px;line-height:0%;font-family:sans-serif;letter-spacing:0px;word-spacing:0px;fill:#000000;fill-opacity:1;stroke:none;stroke-width:0.80652499px;stroke-linecap:butt;stroke-linejoin:miter;stroke-opacity:1"
       id="text4146">
      <path
         d="m 423.08623,538.84227 q 0,1.264 -0.336,2.448 -0.336,1.184 -1.04,2.096 -0.704,0.912 -1.792,1.472 -1.088,0.544 -2.592,0.544 -0.512,0 -1.04,-0.048 -0.528,-0.048 -0.992,-0.176 l 2.288,-9.616 q 1.056,-0.24 2.032,-0.24 1.632,0 2.544,0.928 0.928,0.912 0.928,2.592 z m -6.256,5.344 q 0.128,0.032 0.352,0.064 0.224,0.016 0.416,0.016 0.896,0 1.648,-0.384 0.768,-0.384 1.328,-1.072 0.56,-0.704 0.864,-1.68 0.32,-0.976 0.32,-2.144 0,-1.216 -0.56,-1.872 -0.56,-0.656 -1.76,-0.656 -0.432,0 -0.784,0.048 z"
         style="font-style:italic;font-variant:normal;font-weight:normal;font-stretch:normal;font-size:16px;line-height:50%;font-family:'Ubuntu Mono';-inkscape-font-specification:'Ubuntu Mono, Italic';font-variant-ligatures:normal;font-variant-caps:normal;font-variant-numeric:normal;font-feature-settings:normal;text-align:start;writing-mode:lr-tb;text-anchor:start;fill:#ffffff;fill-opacity:1;stroke-width:0.80652499px"
         id="path19" />
      <path
         d="m 426.51023,545.49827 q -1.184,0 -1.856,-0.688 -0.656,-0.688 -0.656,-1.904 0,-0.832 0.224,-1.744 0.24,-0.912 0.752,-1.68 0.528,-0.768 1.344,-1.264 0.816,-0.496 1.968,-0.496 1.184,0 1.84,0.688 0.672,0.688 0.672,1.904 0,0.832 -0.24,1.744 -0.224,0.912 -0.752,1.68 -0.512,0.768 -1.328,1.264 -0.816,0.496 -1.968,0.496 z m 0.224,-1.184 q 0.64,0 1.152,-0.352 0.512,-0.368 0.864,-0.928 0.352,-0.56 0.528,-1.248 0.192,-0.704 0.192,-1.36 0,-0.72 -0.32,-1.12 -0.32,-0.416 -1.088,-0.416 -0.64,0 -1.152,0.368 -0.512,0.352 -0.864,0.928 -0.352,0.56 -0.544,1.264 -0.176,0.688 -0.176,1.344 0,0.72 0.32,1.12 0.32,0.4 1.088,0.4 z"
         style="font-style:italic;font-variant:normal;font-weight:normal;font-stretch:normal;font-size:16px;line-height:50%;font-family:'Ubuntu Mono';-inkscape-font-specification:'Ubuntu Mono, Italic';font-variant-ligatures:normal;font-variant-caps:normal;font-variant-numeric:normal;font-feature-settings:normal;text-align:start;writing-mode:lr-tb;text-anchor:start;fill:#ffffff;fill-opacity:1;stroke-width:0.80652499px"
         id="path21" />
      <path
         d="m 433.03823,545.32227 h -1.312 l 1.712,-7.152 q 0.656,-0.192 1.408,-0.304 0.752,-0.128 1.36,-0.128 0.64,0 1.104,0.176 0.464,0.176 0.752,0.496 0.288,0.304 0.416,0.736 0.144,0.432 0.144,0.944 0,0.336 -0.064,0.704 -0.064,0.352 -0.16,0.72 l -0.912,3.808 h -1.312 l 0.848,-3.52 q 0.096,-0.4 0.192,-0.8 0.096,-0.416 0.096,-0.8 0,-0.56 -0.32,-0.928 -0.32,-0.384 -1.168,-0.384 -0.368,0 -0.72,0.048 -0.336,0.032 -0.56,0.112 z"
         style="font-style:italic;font-variant:normal;font-weight:normal;font-stretch:normal;font-size:16px;line-height:50%;font-family:'Ubuntu Mono';-inkscape-font-specification:'Ubuntu Mono, Italic';font-variant-ligatures:normal;font-variant-caps:normal;font-variant-numeric:normal;font-feature-settings:normal;text-align:start;writing-mode:lr-tb;text-anchor:start;fill:#ffffff;fill-opacity:1;stroke-width:0.80652499px"
         id="path23" />
      <path
         d="m 445.63023,534.45827 -0.176,0.72 q -0.08,0.352 -0.208,0.816 -0.128,0.448 -0.288,0.944 -0.16,0.48 -0.32,0.96 -0.16,0.464 -0.304,0.832 h -0.816 q 0.032,-0.368 0.08,-0.832 0.064,-0.48 0.144,-0.96 0.08,-0.496 0.16,-0.96 0.096,-0.464 0.192,-0.816 l 0.16,-0.704 z"
         style="font-style:italic;font-variant:normal;font-weight:normal;font-stretch:normal;font-size:16px;line-height:50%;font-family:'Ubuntu Mono';-inkscape-font-specification:'Ubuntu Mono, Italic';font-variant-ligatures:normal;font-variant-caps:normal;font-variant-numeric:normal;font-feature-settings:normal;text-align:start;writing-mode:lr-tb;text-anchor:start;fill:#ffffff;fill-opacity:1;stroke-width:0.80652499px"
         id="path25" />
      <path
         d="m 453.74223,545.11427 q -0.464,0.16 -0.976,0.272 -0.496,0.112 -1.056,0.112 -0.464,0 -0.864,-0.096 -0.384,-0.096 -0.688,-0.304 -0.288,-0.224 -0.464,-0.592 -0.16,-0.368 -0.16,-0.928 0,-0.352 0.048,-0.736 0.064,-0.384 0.16,-0.784 l 0.752,-3.056 h -1.568 l 0.256,-1.104 h 1.584 l 0.496,-2.08 1.376,-0.224 -0.56,2.304 h 2.848 l -0.256,1.104 h -2.864 l -0.752,3.184 q -0.08,0.304 -0.144,0.592 -0.064,0.288 -0.064,0.56 0,0.608 0.272,0.816 0.288,0.192 0.8,0.192 0.496,0 0.96,-0.096 0.48,-0.112 0.896,-0.272 z"
         style="font-style:italic;font-variant:normal;font-weight:normal;font-stretch:normal;font-size:16px;line-height:50%;font-family:'Ubuntu Mono';-inkscape-font-specification:'Ubuntu Mono, Italic';font-variant-ligatures:normal;font-variant-caps:normal;font-variant-numeric:normal;font-feature-settings:normal;text-align:start;writing-mode:lr-tb;text-anchor:start;fill:#ffffff;fill-opacity:1;stroke-width:0.80652499px"
         id="path27" />
      <path
         d="m 463.85423,542.66627 q 0,-0.976 0.32,-1.872 0.336,-0.896 0.96,-1.584 0.64,-0.688 1.552,-1.088 0.928,-0.416 2.128,-0.416 0.656,0 1.152,0.096 0.496,0.08 0.928,0.256 l -0.496,1.12 q -0.272,-0.128 -0.656,-0.24 -0.368,-0.112 -1.04,-0.112 -0.816,0 -1.472,0.32 -0.656,0.304 -1.12,0.832 -0.448,0.512 -0.688,1.184 -0.24,0.656 -0.24,1.376 0,0.368 0.096,0.704 0.096,0.32 0.352,0.576 0.256,0.256 0.688,0.4 0.448,0.144 1.12,0.144 0.352,0 0.688,-0.048 0.336,-0.048 0.624,-0.128 0.288,-0.08 0.496,-0.16 0.224,-0.08 0.336,-0.16 l 0.112,1.12 q -0.288,0.176 -0.944,0.352 -0.64,0.176 -1.552,0.176 -1.664,0 -2.512,-0.8 -0.832,-0.8 -0.832,-2.048 z"
         style="font-style:italic;font-variant:normal;font-weight:normal;font-stretch:normal;font-size:16px;line-height:50%;font-family:'Ubuntu Mono';-inkscape-font-specification:'Ubuntu Mono, Italic';font-variant-ligatures:normal;font-variant-caps:normal;font-variant-numeric:normal;font-feature-settings:normal;text-align:start;writing-mode:lr-tb;text-anchor:start;fill:#ffffff;fill-opacity:1;stroke-width:0.80652499px"
         id="path29" />
      <path
         d="m 474.51023,545.49827 q -1.184,0 -1.856,-0.688 -0.656,-0.688 -0.656,-1.904 0,-0.832 0.224,-1.744 0.24,-0.912 0.752,-1.68 0.528,-0.768 1.344,-1.264 0.816,-0.496 1.968,-0.496 1.184,0 1.84,0.688 0.672,0.688 0.672,1.904 0,0.832 -0.24,1.744 -0.224,0.912 -0.752,1.68 -0.512,0.768 -1.328,1.264 -0.816,0.496 -1.968,0.496 z m 0.224,-1.184 q 0.64,0 1.152,-0.352 0.512,-0.368 0.864,-0.928 0.352,-0.56 0.528,-1.248 0.192,-0.704 0.192,-1.36 0,-0.72 -0.32,-1.12 -0.32,-0.416 -1.088,-0.416 -0.64,0 -1.152,0.368 -0.512,0.352 -0.864,0.928 -0.352,0.56 -0.544,1.264 -0.176,0.688 -0.176,1.344 0,0.72 0.32,1.12 0.32,0.4 1.088,0.4 z"
         style="font-style:italic;font-variant:normal;font-weight:normal;font-stretch:normal;font-size:16px;line-height:50%;font-family:'Ubuntu Mono';-inkscape-font-specification:'Ubuntu Mono, Italic';font-variant-ligatures:normal;font-variant-caps:normal;font-variant-numeric:normal;font-feature-settings:normal;text-align:start;writing-mode:lr-tb;text-anchor:start;fill:#ffffff;fill-opacity:1;stroke-width:0.80652499px"
         id="path31" />
      <path
         d="m 485.79023,543.85027 q 0,0.336 0.064,0.672 0.064,0.32 0.192,0.72 l -1.168,0.16 q -0.08,-0.144 -0.144,-0.336 -0.064,-0.192 -0.096,-0.416 -0.32,0.288 -0.864,0.576 -0.528,0.272 -1.344,0.272 -1.248,0 -1.84,-0.736 -0.592,-0.736 -0.592,-1.92 0,-0.96 0.32,-1.872 0.32,-0.928 0.96,-1.632 0.64,-0.72 1.6,-1.152 0.96,-0.448 2.224,-0.448 0.368,0 0.736,0.048 l 0.8,-3.328 1.36,-0.224 -2.016,8.352 q -0.08,0.336 -0.144,0.64 -0.048,0.288 -0.048,0.624 z m -3.104,0.56 q 0.608,0 1.072,-0.256 0.48,-0.256 0.8,-0.608 0.016,-0.24 0.048,-0.544 0.048,-0.304 0.112,-0.576 l 0.88,-3.504 q -0.08,-0.032 -0.32,-0.048 -0.224,-0.032 -0.352,-0.032 -0.816,0 -1.488,0.32 -0.656,0.32 -1.136,0.864 -0.464,0.528 -0.72,1.232 -0.256,0.688 -0.256,1.44 0,0.368 0.064,0.688 0.064,0.304 0.208,0.528 0.16,0.224 0.416,0.368 0.272,0.128 0.672,0.128 z"
         style="font-style:italic;font-variant:normal;font-weight:normal;font-stretch:normal;font-size:16px;line-height:50%;font-family:'Ubuntu Mono';-inkscape-font-specification:'Ubuntu Mono, Italic';font-variant-ligatures:normal;font-variant-caps:normal;font-variant-numeric:normal;font-feature-settings:normal;text-align:start;writing-mode:lr-tb;text-anchor:start;fill:#ffffff;fill-opacity:1;stroke-width:0.80652499px"
         id="path33" />
      <path
         d="m 489.31023,541.41827 q 0.96,-0.016 1.728,-0.08 0.768,-0.08 1.296,-0.272 0.544,-0.192 0.832,-0.528 0.288,-0.352 0.288,-0.88 0,-0.128 -0.064,-0.272 -0.048,-0.144 -0.192,-0.272 -0.128,-0.128 -0.368,-0.208 -0.24,-0.08 -0.592,-0.08 -0.544,0 -1.024,0.224 -0.464,0.208 -0.848,0.576 -0.384,0.352 -0.656,0.816 -0.256,0.464 -0.4,0.976 z m 1.616,4.096 q -0.784,0 -1.36,-0.224 -0.576,-0.24 -0.96,-0.624 -0.384,-0.384 -0.576,-0.88 -0.176,-0.512 -0.176,-1.056 0,-1.008 0.304,-1.92 0.32,-0.912 0.912,-1.584 0.592,-0.688 1.424,-1.088 0.848,-0.416 1.904,-0.416 0.624,0 1.072,0.16 0.448,0.144 0.736,0.4 0.288,0.24 0.416,0.576 0.144,0.336 0.144,0.704 0,1.008 -0.512,1.568 -0.512,0.56 -1.328,0.848 -0.816,0.272 -1.824,0.352 -0.992,0.08 -1.952,0.112 -0.096,1.008 0.528,1.472 0.624,0.448 1.648,0.448 0.336,0 0.688,-0.048 0.368,-0.064 0.672,-0.128 0.32,-0.08 0.56,-0.16 0.24,-0.096 0.336,-0.16 l 0.112,1.12 q -0.304,0.16 -0.992,0.336 -0.688,0.192 -1.776,0.192 z"
         style="font-style:italic;font-variant:normal;font-weight:normal;font-stretch:normal;font-size:16px;line-height:50%;font-family:'Ubuntu Mono';-inkscape-font-specification:'Ubuntu Mono, Italic';font-variant-ligatures:normal;font-variant-caps:normal;font-variant-numeric:normal;font-feature-settings:normal;text-align:start;writing-mode:lr-tb;text-anchor:start;fill:#ffffff;fill-opacity:1;stroke-width:0.80652499px"
         id="path35" />
      <path
         d="m 508.73423,545.40227 q -0.08,-0.16 -0.144,-0.336 -0.064,-0.192 -0.096,-0.416 -0.32,0.288 -0.896,0.576 -0.56,0.272 -1.328,0.272 -1.248,0 -1.84,-0.752 -0.576,-0.752 -0.576,-1.904 0,-0.96 0.32,-1.872 0.32,-0.912 0.96,-1.632 0.656,-0.72 1.632,-1.152 0.976,-0.448 2.272,-0.448 0.192,0 0.432,0.016 0.256,0.016 0.512,0.064 0.256,0.048 0.496,0.128 0.256,0.064 0.448,0.16 l -1.088,4.48 q -0.08,0.336 -0.144,0.64 -0.048,0.288 -0.048,0.624 0,0.336 0.064,0.672 0.064,0.32 0.192,0.72 z m -2.192,-0.992 q 0.608,0 1.072,-0.256 0.48,-0.256 0.8,-0.608 0.016,-0.24 0.048,-0.544 0.048,-0.304 0.112,-0.576 l 0.88,-3.504 q -0.08,-0.032 -0.304,-0.048 -0.224,-0.032 -0.352,-0.032 -0.816,0 -1.488,0.32 -0.656,0.32 -1.136,0.864 -0.48,0.528 -0.736,1.232 -0.256,0.688 -0.256,1.44 0,0.368 0.064,0.688 0.064,0.304 0.208,0.528 0.16,0.224 0.416,0.368 0.272,0.128 0.672,0.128 z"
         style="font-style:italic;font-variant:normal;font-weight:normal;font-stretch:normal;font-size:16px;line-height:50%;font-family:'Ubuntu Mono';-inkscape-font-specification:'Ubuntu Mono, Italic';font-variant-ligatures:normal;font-variant-caps:normal;font-variant-numeric:normal;font-feature-settings:normal;text-align:start;writing-mode:lr-tb;text-anchor:start;fill:#ffffff;fill-opacity:1;stroke-width:0.80652499px"
         id="path37" />
      <path
         d="m 515.72623,535.43427 h -2.144 l 0.272,-1.12 h 3.456 l -1.92,7.984 q -0.08,0.32 -0.128,0.624 -0.048,0.288 -0.048,0.544 0,0.464 0.224,0.688 0.224,0.224 0.832,0.224 0.416,0 0.816,-0.144 0.4,-0.144 0.624,-0.272 l 0.096,1.12 q -0.224,0.128 -0.736,0.272 -0.496,0.144 -1.168,0.144 -1.056,0 -1.536,-0.448 -0.464,-0.464 -0.464,-1.376 0,-0.656 0.208,-1.488 z"
         style="font-style:italic;font-variant:normal;font-weight:normal;font-stretch:normal;font-size:16px;line-height:50%;font-family:'Ubuntu Mono';-inkscape-font-specification:'Ubuntu Mono, Italic';font-variant-ligatures:normal;font-variant-caps:normal;font-variant-numeric:normal;font-feature-settings:normal;text-align:start;writing-mode:lr-tb;text-anchor:start;fill:#ffffff;fill-opacity:1;stroke-width:0.80652499px"
         id="path39" />
      <path
         d="m 522.51023,545.49827 q -1.184,0 -1.856,-0.688 -0.656,-0.688 -0.656,-1.904 0,-0.832 0.224,-1.744 0.24,-0.912 0.752,-1.68 0.528,-0.768 1.344,-1.264 0.816,-0.496 1.968,-0.496 1.184,0 1.84,0.688 0.672,0.688 0.672,1.904 0,0.832 -0.24,1.744 -0.224,0.912 -0.752,1.68 -0.512,0.768 -1.328,1.264 -0.816,0.496 -1.968,0.496 z m 0.224,-1.184 q 0.64,0 1.152,-0.352 0.512,-0.368 0.864,-0.928 0.352,-0.56 0.528,-1.248 0.192,-0.704 0.192,-1.36 0,-0.72 -0.32,-1.12 -0.32,-0.416 -1.088,-0.416 -0.64,0 -1.152,0.368 -0.512,0.352 -0.864,0.928 -0.352,0.56 -0.544,1.264 -0.176,0.688 -0.176,1.344 0,0.72 0.32,1.12 0.32,0.4 1.088,0.4 z"
         style="font-style:italic;font-variant:normal;font-weight:normal;font-stretch:normal;font-size:16px;line-height:50%;font-family:'Ubuntu Mono';-inkscape-font-specification:'Ubuntu Mono, Italic';font-variant-ligatures:normal;font-variant-caps:normal;font-variant-numeric:normal;font-feature-settings:normal;text-align:start;writing-mode:lr-tb;text-anchor:start;fill:#ffffff;fill-opacity:1;stroke-width:0.80652499px"
         id="path41" />
      <path
         d="m 529.03823,545.32227 h -1.312 l 1.712,-7.152 q 0.656,-0.192 1.408,-0.304 0.752,-0.128 1.36,-0.128 0.64,0 1.104,0.176 0.464,0.176 0.752,0.496 0.288,0.304 0.416,0.736 0.144,0.432 0.144,0.944 0,0.336 -0.064,0.704 -0.064,0.352 -0.16,0.72 l -0.912,3.808 h -1.312 l 0.848,-3.52 q 0.096,-0.4 0.192,-0.8 0.096,-0.416 0.096,-0.8 0,-0.56 -0.32,-0.928 -0.32,-0.384 -1.168,-0.384 -0.368,0 -0.72,0.048 -0.336,0.032 -0.56,0.112 z"
         style="font-style:italic;font-variant:normal;font-weight:normal;font-stretch:normal;font-size:16px;line-height:50%;font-family:'Ubuntu Mono';-inkscape-font-specification:'Ubuntu Mono, Italic';font-variant-ligatures:normal;font-variant-caps:normal;font-variant-numeric:normal;font-feature-settings:normal;text-align:start;writing-mode:lr-tb;text-anchor:start;fill:#ffffff;fill-opacity:1;stroke-width:0.80652499px"
         id="path43" />
      <path
         d="m 537.31023,541.41827 q 0.96,-0.016 1.728,-0.08 0.768,-0.08 1.296,-0.272 0.544,-0.192 0.832,-0.528 0.288,-0.352 0.288,-0.88 0,-0.128 -0.064,-0.272 -0.048,-0.144 -0.192,-0.272 -0.128,-0.128 -0.368,-0.208 -0.24,-0.08 -0.592,-0.08 -0.544,0 -1.024,0.224 -0.464,0.208 -0.848,0.576 -0.384,0.352 -0.656,0.816 -0.256,0.464 -0.4,0.976 z m 1.616,4.096 q -0.784,0 -1.36,-0.224 -0.576,-0.24 -0.96,-0.624 -0.384,-0.384 -0.576,-0.88 -0.176,-0.512 -0.176,-1.056 0,-1.008 0.304,-1.92 0.32,-0.912 0.912,-1.584 0.592,-0.688 1.424,-1.088 0.848,-0.416 1.904,-0.416 0.624,0 1.072,0.16 0.448,0.144 0.736,0.4 0.288,0.24 0.416,0.576 0.144,0.336 0.144,0.704 0,1.008 -0.512,1.568 -0.512,0.56 -1.328,0.848 -0.816,0.272 -1.824,0.352 -0.992,0.08 -1.952,0.112 -0.096,1.008 0.528,1.472 0.624,0.448 1.648,0.448 0.336,0 0.688,-0.048 0.368,-0.064 0.672,-0.128 0.32,-0.08 0.56,-0.16 0.24,-0.096 0.336,-0.16 l 0.112,1.12 q -0.304,0.16 -0.992,0.336 -0.688,0.192 -1.776,0.192 z"
         style="font-style:italic;font-variant:normal;font-weight:normal;font-stretch:normal;font-size:16px;line-height:50%;font-family:'Ubuntu Mono';-inkscape-font-specification:'Ubuntu Mono, Italic';font-variant-ligatures:normal;font-variant-caps:normal;font-variant-numeric:normal;font-feature-settings:normal;text-align:start;writing-mode:lr-tb;text-anchor:start;fill:#ffffff;fill-opacity:1;stroke-width:0.80652499px"
         id="path45" />
      <path
         d="m 548.70223,538.10627 q -0.144,0.592 -0.288,1.088 -0.128,0.496 -0.272,0.944 -0.144,0.448 -0.304,0.896 -0.144,0.432 -0.304,0.912 h -0.912 q 0.064,-0.48 0.112,-0.912 0.064,-0.448 0.128,-0.896 0.08,-0.448 0.176,-0.944 0.096,-0.496 0.24,-1.088 l 0.64,-2.688 h 1.424 z m -2.272,7.408 q -0.416,0 -0.688,-0.24 -0.256,-0.24 -0.256,-0.72 0,-0.576 0.32,-0.896 0.336,-0.32 0.8,-0.32 0.416,0 0.688,0.256 0.288,0.24 0.288,0.72 0,0.56 -0.368,0.88 -0.352,0.32 -0.784,0.32 z"
         style="font-style:italic;font-variant:normal;font-weight:normal;font-stretch:normal;font-size:16px;line-height:50%;font-family:'Ubuntu Mono';-inkscape-font-specification:'Ubuntu Mono, Italic';font-variant-ligatures:normal;font-variant-caps:normal;font-variant-numeric:normal;font-feature-settings:normal;text-align:start;writing-mode:lr-tb;text-anchor:start;fill:#ffffff;fill-opacity:1;stroke-width:0.80652499px"
         id="path47" />
      <path
         d="m 555.58223,535.41827 v 0.8 h -1.04 v 3.392 h -0.928 v -3.392 h -1.024 v -0.8 z m 1.936,3.088 -0.624,-1.856 q -0.032,0.32 -0.048,0.8 -0.016,0.48 -0.032,0.944 0,0.448 -0.016,0.8 0,0.352 0,0.416 h -0.928 q 0.048,-0.8 0.096,-1.392 0.048,-0.592 0.096,-1.072 0.064,-0.48 0.112,-0.88 0.064,-0.416 0.144,-0.848 h 0.864 l 0.704,2.176 0.768,-2.176 h 0.848 q 0.08,0.432 0.128,0.848 0.064,0.416 0.112,0.896 0.048,0.48 0.08,1.072 0.048,0.592 0.096,1.376 h -0.928 q 0,-0.064 -0.016,-0.416 0,-0.352 -0.016,-0.8 0,-0.464 -0.016,-0.944 0,-0.48 -0.016,-0.8 l -0.688,1.856 z"
         style="font-style:italic;font-variant:normal;font-weight:normal;font-stretch:normal;font-size:16px;line-height:50%;font-family:'Ubuntu Mono';-inkscape-font-specification:'Ubuntu Mono, Italic';font-variant-ligatures:normal;font-variant-caps:normal;font-variant-numeric:normal;font-feature-settings:normal;text-align:start;writing-mode:lr-tb;text-anchor:start;fill:#ffffff;fill-opacity:1;stroke-width:0.80652499px"
         id="path49" />
    </g>
  </g>
</svg>
